<?xml version="1.0" encoding="UTF-8"?>
<svg width="48px" height="48px" viewBox="0 0 48 48" version="1.1" xmlns="http://www.w3.org/2000/svg" xmlns:xlink="http://www.w3.org/1999/xlink">
    <title>5D6303D0-D8D1-42F8-B162-D4473548FA8C</title>
    <g id="Landing-page" stroke="none" stroke-width="1" fill="none" fill-rule="evenodd">
        <g id="Landingpage---Tablet" transform="translate(-78.000000, -810.000000)">
            <g id="Group-4" transform="translate(16.000000, 794.000000)">
                <g id="Group-11" transform="translate(62.000000, 16.000000)">
                    <circle id="Oval" fill="#FDD92A" cx="24" cy="24" r="24"></circle>
                    <g id="Fill-85-+-Fill-87" transform="translate(11.250000, 10.500000)" fill="#0B1511">
                        <path d="M21.6294643,24.890522 C21.6294643,25.2192198 21.3744643,25.485989 21.0602679,25.485989 L1.70758929,25.4871799 C1.55618304,25.4871799 1.41160714,25.4240604 1.30459821,25.3121126 C1.19872768,25.2013558 1.13839286,25.0489162 1.13839286,24.8917129 L1.13839286,2.26396566 C1.13839286,1.93407692 1.39339286,1.66849863 1.70758929,1.66730769 L11.953125,1.66730769 C12.2673214,1.66849863 12.5223214,1.93407692 12.5223214,2.26396566 C12.5223214,2.59266346 12.2673214,2.85943269 11.953125,2.85824176 L2.27678571,2.85824176 L2.27678571,24.2950549 L20.4910714,24.2950549 L20.4910714,14.1721154 C20.4910714,13.8434176 20.7460714,13.5766484 21.0602679,13.5766484 C21.3744643,13.5766484 21.6294643,13.8434176 21.6294643,14.1721154 L21.6294643,24.890522 Z M21.4279687,11.2757637 C19.1432143,13.6647775 16.7355134,14.9795687 14.6454241,14.9795687 C14.0079241,14.9795687 13.4296205,14.8342747 12.9264509,14.5865604 L9.084375,18.6059629 C8.86238839,18.8381951 8.50265625,18.8381951 8.27953125,18.6059629 C8.05754464,18.3725398 8.05754464,17.9962047 8.27953125,17.7639725 L11.9838616,13.889864 C10.5028125,12.283294 10.1168973,10.2074959 10.8818973,7.87921978 C11.7914732,5.11148901 14.2777232,2.46523352 15.2977232,2.33423077 L15.9375,2.25086538 L15.9375,4.95309478 C17.1988393,4.39811951 18.1755804,2.15439973 18.4761161,1.21713462 L18.556942,0.967038462 L18.7880357,0.86104533 C19.0862946,0.725278846 19.3902455,0.597848901 19.6964732,0.476373626 L0.569196429,0.476373626 C0.255,0.476373626 0,0.743142857 0,1.07184066 L0,26.081456 C0,26.4101538 0.255,26.6769231 0.569196429,26.6769231 L22.1986607,26.6769231 C22.5128571,26.6769231 22.7678571,26.4101538 22.7678571,26.081456 L22.7678571,9.63227473 C22.3523438,10.2205962 21.9060938,10.7755714 21.4279687,11.2757637 L21.4279687,11.2757637 Z" id="Fill-85"></path>
                        <path d="M19.1868865,1.80911246 C19.1868865,1.80911246 17.8168886,6.64660004 14.5547728,6.25936125 L14.509371,3.98867935 C10.6070905,7.94139225 11.1814226,10.923011 11.9123908,12.2010189 C12.0883226,12.5067337 12.2983057,12.8052552 12.5570957,13.0666114 L18.3866806,6.90915512 C18.6080141,6.6753732 18.967823,6.6753732 19.1891566,6.90915512 C19.4104901,7.14293705 19.4104901,7.52178366 19.1891566,7.75676447 L13.57523,13.6864333 C14.1597775,13.8698622 14.9111765,13.8794532 15.9327159,13.5653462 C18.3821404,12.8124485 20.7316811,9.96750229 20.7316811,9.96750229 C23.6192324,6.95351375 25.5,0 25.5,0 C22.9484216,0.284134958 19.1868865,1.80911246 19.1868865,1.80911246" id="Fill-87"></path>
                    </g>
                </g>
            </g>
        </g>
    </g>
</svg>